<svg width="50" height="39" viewBox="0 0 50 39" fill="none" xmlns="http://www.w3.org/2000/svg">
<path d="M4.21588 38.8932C1.70197 35.1324 0.255579 30.76 0.030863 26.2419C-0.193853 21.7238 0.81153 17.2295 2.93986 13.2378C5.06818 9.24607 8.2397 5.90666 12.1164 3.57542C15.9931 1.24419 20.4297 0.00849656 24.9533 4.35867e-05C29.4769 -0.00840557 33.9181 1.2107 37.8035 3.52743C41.6888 5.84417 44.8728 9.17171 47.016 13.1554C49.1593 17.1391 50.1814 21.6297 49.9736 26.1486C49.7658 30.6674 48.3357 35.0453 45.8359 38.8154L39.4742 34.5972C41.2108 31.9782 42.2042 28.937 42.3486 25.7979C42.4929 22.6587 41.7829 19.5392 40.294 16.7718C38.8052 14.0045 36.5933 11.6929 33.8943 10.0835C31.1952 8.47413 28.11 7.62725 24.9676 7.63312C21.8251 7.63899 18.7431 8.4974 16.0501 10.1169C13.357 11.7363 11.1538 14.0561 9.67534 16.8291C8.19684 19.602 7.49843 22.7241 7.65453 25.8627C7.81064 29.0013 8.81541 32.0387 10.5618 34.6513L4.21588 38.8932Z" fill="url(#paint0_linear_0_3034)"/>
<defs>
<linearGradient id="paint0_linear_0_3034" x1="-1.62913e-06" y1="25" x2="50" y2="25" gradientUnits="userSpaceOnUse">
<stop stop-color="#3D5AEE"/>
<stop offset="1" stop-color="#01EBAB"/>
</linearGradient>
</defs>
</svg>
