<svg width="10" height="8" viewBox="0 0 10 8" fill="none" xmlns="http://www.w3.org/2000/svg">
<path d="M9.77989 1.353C9.6389 1.19997 8.76544 0.406896 8.5661 0.406896C8.36675 0.406896 8.17556 0.492864 8.03458 0.645896L4.99546 4.00001L2.04145 0.645896C1.89966 0.497201 1.70975 0.414924 1.51263 0.416784C1.31551 0.418644 0.359584 1.21159 0.220195 1.36294C0.0808063 1.51429 0.0017419 1.71902 2.9085e-05 1.93305C-0.00168373 2.14708 0.0740923 2.35328 0.211038 2.50723L4.46394 7.125C4.60492 7.27803 4.79611 7.364 4.99546 7.364C5.19481 7.364 5.386 7.27803 5.52698 7.125L9.77989 2.50723C9.92082 2.35416 10 2.14657 10 1.93012C10 1.71367 9.92082 1.50608 9.77989 1.353Z" fill="#219FCE"/>
</svg>
