<svg width="30" height="29" viewBox="0 0 30 29" fill="none" xmlns="http://www.w3.org/2000/svg">
<path d="M8.5 29C9.88071 29 11 27.8807 11 26.5C11 25.1193 9.88071 24 8.5 24C7.11929 24 6 25.1193 6 26.5C6 27.8807 7.11929 29 8.5 29Z" fill="#219FCE"/>
<path d="M24.5 29C25.8807 29 27 27.8807 27 26.5C27 25.1193 25.8807 24 24.5 24C23.1193 24 22 25.1193 22 26.5C22 27.8807 23.1193 29 24.5 29Z" fill="#219FCE"/>
<path d="M1.5 2.25H4.875L5.8875 7.65M5.8875 7.65L8.25 20.25H25.125L28.5 7.65H5.8875Z" stroke="#219FCE" stroke-width="3" stroke-linecap="round" stroke-linejoin="round"/>
</svg>
