<svg width="120" height="120" viewBox="0 0 120 120" fill="none" xmlns="http://www.w3.org/2000/svg">
<path d="M60 2C92.0325 2 118 27.9675 118 60C118 92.0325 92.0325 118 60 118C27.9675 118 2 92.0325 2 60C2 27.9675 27.9675 2 60 2Z" fill="white" stroke="url(#paint0_linear_2189_5)" stroke-width="4"/>
<path d="M76.2083 39.5834L85 48.375L52.5833 80.8334L35 63.2292L43.7917 54.4375L52.5833 63.2292L76.2083 39.5834ZM76.2083 45.4167L52.5833 69.0834L43.7917 60.3959L40.8542 63.2292L52.5833 74.9375L79.1458 48.375L76.2083 45.4167Z" fill="url(#paint1_linear_2189_5)"/>
<defs>
<linearGradient id="paint0_linear_2189_5" x1="120" y1="60" x2="0" y2="60" gradientUnits="userSpaceOnUse">
<stop stop-color="#3D5AEE"/>
<stop offset="1" stop-color="#01EBAB"/>
</linearGradient>
<linearGradient id="paint1_linear_2189_5" x1="85" y1="60.2084" x2="35" y2="60.2084" gradientUnits="userSpaceOnUse">
<stop stop-color="#3D5AEE"/>
<stop offset="1" stop-color="#01EBAB"/>
</linearGradient>
</defs>
</svg>
