<svg width="15" height="14" viewBox="0 0 15 14" fill="none" xmlns="http://www.w3.org/2000/svg">
<path d="M13.367 0.754145C13.1419 0.625312 12.8944 0.543405 12.6385 0.513102C12.3827 0.4828 12.1235 0.504695 11.8759 0.577538C11.6282 0.650381 11.397 0.772744 11.1953 0.937638C10.9935 1.10253 10.8254 1.30673 10.7003 1.53856L6.07961 8.28437L3.99623 6.13908C3.81535 5.94623 3.59898 5.79241 3.35976 5.68659C3.12053 5.58077 2.86323 5.52507 2.60287 5.52275C2.34251 5.52042 2.08431 5.5715 1.84333 5.67302C1.60235 5.77455 1.38342 5.92447 1.19931 6.11405C1.01521 6.30363 0.869608 6.52906 0.771016 6.7772C0.672424 7.02534 0.622812 7.29122 0.625074 7.55931C0.627336 7.82741 0.681428 8.09235 0.784194 8.33869C0.886959 8.58503 1.03634 8.80782 1.22362 8.99408L5.14528 13.0323C5.51587 13.4149 6.01589 13.6249 6.53158 13.6249L6.80316 13.6047C7.10371 13.5614 7.39039 13.4469 7.64065 13.2701C7.89091 13.0933 8.09791 12.8592 8.24535 12.5861L14.1278 3.50012C14.253 3.26838 14.3326 3.01352 14.3621 2.7501C14.3916 2.48668 14.3704 2.21986 14.2998 1.96487C14.2291 1.70988 14.1104 1.47172 13.9503 1.26398C13.7903 1.05624 13.5921 0.883001 13.367 0.754145Z" fill="#219FCE"/>
</svg>
