<svg width="16" height="16" viewBox="0 0 16 16" fill="none" xmlns="http://www.w3.org/2000/svg">
<path d="M4.46513 11.5354C4.04672 11.117 4.04672 10.4386 4.46513 10.0202L10.021 4.46438C10.4394 4.04596 11.1178 4.04596 11.5362 4.46438C11.9546 4.8828 11.9546 5.56119 11.5362 5.97961L5.98036 11.5354C5.56194 11.9539 4.88355 11.9539 4.46513 11.5354Z" fill="white"/>
<path d="M11.5364 11.5354C11.118 11.9538 10.4396 11.9538 10.0212 11.5354L4.46535 5.97952C4.04694 5.5611 4.04694 4.88271 4.46535 4.46429C4.88377 4.04587 5.56216 4.04587 5.98058 4.46429L11.5364 10.0201C11.9548 10.4385 11.9548 11.1169 11.5364 11.5354Z" fill="white"/>
</svg>
