<svg width="16" height="16" viewBox="0 0 16 16" fill="none" xmlns="http://www.w3.org/2000/svg">
<path d="M4.8001 2.87998C4.8001 2.5405 4.93495 2.21493 5.175 1.97488C5.41505 1.73483 5.74062 1.59998 6.0801 1.59998H9.9201C10.2596 1.59998 10.5851 1.73483 10.8252 1.97488C11.0652 2.21493 11.2001 2.5405 11.2001 2.87998V4.15998H13.7601C13.9298 4.15998 14.0926 4.2274 14.2126 4.34743C14.3327 4.46745 14.4001 4.63024 14.4001 4.79998C14.4001 4.96971 14.3327 5.1325 14.2126 5.25252C14.0926 5.37255 13.9298 5.43998 13.7601 5.43998H13.0759L12.5211 13.2109C12.4981 13.5338 12.3536 13.836 12.1167 14.0567C11.8797 14.2773 11.568 14.4 11.2443 14.4H4.7553C4.43155 14.4 4.11982 14.2773 3.8829 14.0567C3.64599 13.836 3.50148 13.5338 3.4785 13.2109L2.9249 5.43998H2.2401C2.07036 5.43998 1.90757 5.37255 1.78755 5.25252C1.66753 5.1325 1.6001 4.96971 1.6001 4.79998C1.6001 4.63024 1.66753 4.46745 1.78755 4.34743C1.90757 4.2274 2.07036 4.15998 2.2401 4.15998H4.8001V2.87998ZM6.0801 4.15998H9.9201V2.87998H6.0801V4.15998ZM4.20746 5.43998L4.75594 13.12H11.2449L11.7934 5.43998H4.20746ZM6.7201 6.71998C6.88984 6.71998 7.05262 6.7874 7.17265 6.90743C7.29267 7.02745 7.3601 7.19024 7.3601 7.35998V11.2C7.3601 11.3697 7.29267 11.5325 7.17265 11.6525C7.05262 11.7725 6.88984 11.84 6.7201 11.84C6.55036 11.84 6.38757 11.7725 6.26755 11.6525C6.14753 11.5325 6.0801 11.3697 6.0801 11.2V7.35998C6.0801 7.19024 6.14753 7.02745 6.26755 6.90743C6.38757 6.7874 6.55036 6.71998 6.7201 6.71998ZM9.2801 6.71998C9.44984 6.71998 9.61262 6.7874 9.73265 6.90743C9.85267 7.02745 9.9201 7.19024 9.9201 7.35998V11.2C9.9201 11.3697 9.85267 11.5325 9.73265 11.6525C9.61262 11.7725 9.44984 11.84 9.2801 11.84C9.11036 11.84 8.94757 11.7725 8.82755 11.6525C8.70753 11.5325 8.6401 11.3697 8.6401 11.2V7.35998C8.6401 7.19024 8.70753 7.02745 8.82755 6.90743C8.94757 6.7874 9.11036 6.71998 9.2801 6.71998Z" fill="#219FCE"/>
</svg>
