<svg width="12" height="9" viewBox="0 0 12 9" fill="none" xmlns="http://www.w3.org/2000/svg">
<path d="M6.00012 0.25C8.29178 0.25 10.4719 1.7329 11.5968 4.46777L11.7023 4.73633L11.7257 4.80957C11.8226 5.17713 11.6273 5.56566 11.2638 5.70215C10.9002 5.83849 10.497 5.67455 10.3282 5.33398L10.298 5.26367L10.1173 4.82422C9.16881 2.70505 7.53234 1.75 6.00012 1.75C4.36578 1.75 2.61236 2.83675 1.70227 5.26367C1.55671 5.6513 1.12418 5.84755 0.736447 5.70215C0.348819 5.55659 0.15257 5.12406 0.29797 4.73633C1.38792 1.83013 3.63455 0.25 6.00012 0.25Z" fill="#898E92"/>
<path d="M6.00012 8C5.73747 8 5.4774 7.94827 5.23475 7.84776C4.9921 7.74725 4.77162 7.59993 4.5859 7.41421C4.40019 7.2285 4.25287 7.00802 4.15236 6.76537C4.05185 6.52272 4.00012 6.26264 4.00012 6C4.00012 5.73736 4.05185 5.47728 4.15236 5.23463C4.25287 4.99198 4.40019 4.7715 4.5859 4.58579C4.77162 4.40007 4.9921 4.25275 5.23475 4.15224C5.4774 4.05173 5.73747 4 6.00012 4C6.53055 4 7.03926 4.21071 7.41433 4.58579C7.78941 4.96086 8.00012 5.46957 8.00012 6C8.00012 6.53043 7.78941 7.03914 7.41433 7.41421C7.03926 7.78929 6.53055 8 6.00012 8Z" fill="#898E92"/>
<path d="M7.25012 6C7.25012 5.66848 7.11833 5.35063 6.88391 5.11621C6.6789 4.9112 6.41013 4.78436 6.12414 4.75586L6.00012 4.75C5.83597 4.75 5.67326 4.78191 5.5216 4.84473C5.36995 4.90755 5.2324 5.00014 5.11633 5.11621C5.00026 5.23228 4.90766 5.36983 4.84485 5.52148C4.78203 5.67314 4.75012 5.83585 4.75012 6L4.75598 6.12305C4.76804 6.245 4.79778 6.36489 4.84485 6.47852C4.90766 6.63017 5.00026 6.76772 5.11633 6.88379C5.2324 6.99986 5.36995 7.09245 5.5216 7.15527C5.67326 7.21809 5.83597 7.25 6.00012 7.25L6.12414 7.24414C6.41013 7.21564 6.6789 7.0888 6.88391 6.88379C7.11833 6.64937 7.25012 6.33152 7.25012 6ZM8.75012 6C8.75012 6.72934 8.46018 7.42861 7.94445 7.94434C7.49312 8.39567 6.90125 8.67388 6.2716 8.73633L6.00012 8.75C5.63898 8.75 5.28103 8.67922 4.94738 8.54102C4.61381 8.40282 4.3111 8.19965 4.05578 7.94434C3.80047 7.68902 3.5973 7.38631 3.4591 7.05273C3.35541 6.80241 3.29025 6.5382 3.26379 6.26953L3.25012 6C3.25012 5.63886 3.3209 5.28091 3.4591 4.94727C3.5973 4.61369 3.80047 4.31098 4.05578 4.05566C4.3111 3.80035 4.61381 3.59718 4.94738 3.45898C5.28103 3.32078 5.63898 3.25 6.00012 3.25L6.2716 3.26367C6.90125 3.32612 7.49312 3.60433 7.94445 4.05566C8.46018 4.57139 8.75012 5.27066 8.75012 6Z" fill="#898E92"/>
</svg>
