<svg width="14" height="14" viewBox="0 0 14 14" fill="none" xmlns="http://www.w3.org/2000/svg">
<g opacity="0.5">
<path d="M7.00012 2.25C9.29178 2.25 11.4719 3.7329 12.5968 6.46777L12.7023 6.73633L12.7257 6.80957C12.8226 7.17713 12.6273 7.56566 12.2638 7.70215C11.9002 7.83849 11.497 7.67455 11.3282 7.33398L11.298 7.26367L11.1173 6.82422C10.1688 4.70505 8.53234 3.75 7.00012 3.75C5.36578 3.75 3.61236 4.83675 2.70227 7.26367C2.55671 7.6513 2.12418 7.84755 1.73645 7.70215C1.34882 7.55659 1.15257 7.12406 1.29797 6.73633C2.38792 3.83013 4.63455 2.25 7.00012 2.25Z" fill="black"/>
<path d="M7.00012 10C6.73747 10 6.4774 9.94827 6.23475 9.84776C5.9921 9.74725 5.77162 9.59993 5.5859 9.41421C5.40019 9.2285 5.25287 9.00802 5.15236 8.76537C5.05185 8.52272 5.00012 8.26264 5.00012 8C5.00012 7.73736 5.05185 7.47728 5.15236 7.23463C5.25287 6.99198 5.40019 6.7715 5.5859 6.58579C5.77162 6.40007 5.9921 6.25275 6.23475 6.15224C6.4774 6.05173 6.73747 6 7.00012 6C7.53055 6 8.03926 6.21071 8.41433 6.58579C8.78941 6.96086 9.00012 7.46957 9.00012 8C9.00012 8.53043 8.78941 9.03914 8.41433 9.41421C8.03926 9.78929 7.53055 10 7.00012 10Z" fill="black"/>
<path d="M8.25012 8C8.25012 7.66848 8.11833 7.35063 7.88391 7.11621C7.6789 6.9112 7.41013 6.78436 7.12414 6.75586L7.00012 6.75C6.83597 6.75 6.67326 6.78191 6.5216 6.84473C6.36995 6.90755 6.2324 7.00014 6.11633 7.11621C6.00026 7.23228 5.90766 7.36983 5.84485 7.52148C5.78203 7.67314 5.75012 7.83585 5.75012 8L5.75598 8.12305C5.76804 8.245 5.79778 8.36489 5.84485 8.47852C5.90766 8.63017 6.00026 8.76772 6.11633 8.88379C6.2324 8.99986 6.36995 9.09245 6.5216 9.15527C6.67326 9.21809 6.83597 9.25 7.00012 9.25L7.12414 9.24414C7.41013 9.21564 7.6789 9.0888 7.88391 8.88379C8.11833 8.64937 8.25012 8.33152 8.25012 8ZM9.75012 8C9.75012 8.72934 9.46018 9.42861 8.94445 9.94434C8.49312 10.3957 7.90125 10.6739 7.2716 10.7363L7.00012 10.75C6.63898 10.75 6.28103 10.6792 5.94738 10.541C5.61381 10.4028 5.3111 10.1997 5.05578 9.94434C4.80047 9.68902 4.5973 9.38631 4.4591 9.05273C4.35541 8.80241 4.29025 8.5382 4.26379 8.26953L4.25012 8C4.25012 7.63886 4.3209 7.28091 4.4591 6.94727C4.5973 6.61369 4.80047 6.31098 5.05578 6.05566C5.3111 5.80035 5.61381 5.59718 5.94738 5.45898C6.28103 5.32078 6.63898 5.25 7.00012 5.25L7.2716 5.26367C7.90125 5.32612 8.49312 5.60433 8.94445 6.05566C9.46018 6.57139 9.75012 7.27066 9.75012 8Z" fill="black"/>
<path d="M1.53125 1.46973L11.5312 11.4697" stroke="black" stroke-width="1.5" stroke-linecap="round"/>
</g>
</svg>
