<svg width="18" height="18" viewBox="0 0 18 18" fill="none" xmlns="http://www.w3.org/2000/svg">
<path d="M6.75 2.125C6.05177 2.12463 5.37061 2.34084 4.8004 2.74381C4.23018 3.14679 3.79899 3.7167 3.56625 4.375H0V6.625H3.56625C3.79868 7.28373 4.22971 7.85414 4.79992 8.25761C5.37014 8.66109 6.05147 8.87776 6.75 8.87776C7.44853 8.87776 8.12986 8.66109 8.70008 8.25761C9.27029 7.85414 9.70132 7.28373 9.93375 6.625H18V4.375H9.93375C9.70101 3.7167 9.26981 3.14679 8.6996 2.74381C8.12939 2.34084 7.44823 2.12463 6.75 2.125ZM5.625 5.5C5.625 5.20163 5.74353 4.91548 5.9545 4.70451C6.16548 4.49353 6.45163 4.375 6.75 4.375C7.04837 4.375 7.33452 4.49353 7.5455 4.70451C7.75647 4.91548 7.875 5.20163 7.875 5.5C7.875 5.79837 7.75647 6.08452 7.5455 6.2955C7.33452 6.50647 7.04837 6.625 6.75 6.625C6.45163 6.625 6.16548 6.50647 5.9545 6.2955C5.74353 6.08452 5.625 5.79837 5.625 5.5ZM11.25 9.125C10.5518 9.12463 9.87061 9.34084 9.3004 9.74381C8.73019 10.1468 8.29899 10.7167 8.06625 11.375H0V13.625H8.06625C8.29868 14.2837 8.72971 14.8541 9.29992 15.2576C9.87014 15.6611 10.5515 15.8778 11.25 15.8778C11.9485 15.8778 12.6299 15.6611 13.2001 15.2576C13.7703 14.8541 14.2013 14.2837 14.4338 13.625H18V11.375H14.4338C14.201 10.7167 13.7698 10.1468 13.1996 9.74381C12.6294 9.34084 11.9482 9.12463 11.25 9.125ZM10.125 12.5C10.125 12.2016 10.2435 11.9155 10.4545 11.7045C10.6655 11.4935 10.9516 11.375 11.25 11.375C11.5484 11.375 11.8345 11.4935 12.0455 11.7045C12.2565 11.9155 12.375 12.2016 12.375 12.5C12.375 12.7984 12.2565 13.0845 12.0455 13.2955C11.8345 13.5065 11.5484 13.625 11.25 13.625C10.9516 13.625 10.6655 13.5065 10.4545 13.2955C10.2435 13.0845 10.125 12.7984 10.125 12.5Z" fill="#219FCE"/>
</svg>
