<svg width="14" height="14" viewBox="0 0 14 14" fill="none" xmlns="http://www.w3.org/2000/svg">
<path d="M9.33333 7C9.33333 6.3559 9.10547 5.80599 8.64974 5.35026C8.19401 4.89453 7.6441 4.66667 7 4.66667C6.3559 4.66667 5.80599 4.89453 5.35026 5.35026C4.89453 5.80599 4.66667 6.3559 4.66667 7C4.66667 7.6441 4.89453 8.19401 5.35026 8.64974C5.80599 9.10547 6.3559 9.33333 7 9.33333C7.6441 9.33333 8.19401 9.10547 8.64974 8.64974C9.10547 8.19401 9.33333 7.6441 9.33333 7ZM14 6.00651V8.02995C14 8.10286 13.9757 8.17274 13.9271 8.23958C13.8785 8.30642 13.8177 8.34592 13.7448 8.35807L12.0586 8.61328C11.9431 8.94141 11.8247 9.21788 11.7031 9.44271C11.9158 9.74653 12.2409 10.1658 12.6784 10.7005C12.7391 10.7734 12.7695 10.8494 12.7695 10.9284C12.7695 11.0074 12.7422 11.0773 12.6875 11.138C12.5234 11.3628 12.2227 11.691 11.7852 12.1224C11.3477 12.5538 11.0621 12.7695 10.9284 12.7695C10.8555 12.7695 10.7765 12.7422 10.6914 12.6875L9.43359 11.7031C9.16623 11.8429 8.88976 11.9583 8.60417 12.0495C8.50694 12.8759 8.41884 13.441 8.33984 13.7448C8.29731 13.9149 8.18793 14 8.01172 14H5.98828C5.90321 14 5.82878 13.9742 5.76497 13.9225C5.70117 13.8709 5.66623 13.8056 5.66016 13.7266L5.40495 12.0495C5.1072 11.9523 4.83377 11.8398 4.58464 11.7122L3.29948 12.6875C3.23872 12.7422 3.16276 12.7695 3.07161 12.7695C2.98655 12.7695 2.91059 12.7361 2.84375 12.6693C2.07812 11.9766 1.57682 11.4661 1.33984 11.138C1.29731 11.0773 1.27604 11.0074 1.27604 10.9284C1.27604 10.8555 1.30035 10.7856 1.34896 10.7188C1.4401 10.5911 1.59505 10.3891 1.8138 10.1126C2.03255 9.83615 2.19661 9.62196 2.30599 9.47005C2.14193 9.16623 2.01736 8.86545 1.93229 8.56771L0.264323 8.32161C0.18533 8.30946 0.121528 8.27148 0.0729167 8.20768C0.0243056 8.14388 0 8.07248 0 7.99349V5.97005C0 5.89714 0.0243056 5.82726 0.0729167 5.76042C0.121528 5.69358 0.179253 5.65408 0.246094 5.64193L1.94141 5.38672C2.02648 5.1072 2.14497 4.82769 2.29688 4.54818C2.05382 4.20182 1.72873 3.78255 1.32161 3.29036C1.26085 3.21745 1.23047 3.14453 1.23047 3.07161C1.23047 3.01085 1.25781 2.94097 1.3125 2.86198C1.47049 2.64323 1.76975 2.31662 2.21029 1.88216C2.65082 1.4477 2.93793 1.23047 3.07161 1.23047C3.15061 1.23047 3.2296 1.26085 3.30859 1.32161L4.56641 2.29688C4.83377 2.15712 5.11024 2.04167 5.39583 1.95052C5.49306 1.12413 5.58116 0.559028 5.66016 0.255208C5.70269 0.0850694 5.81207 0 5.98828 0H8.01172C8.09679 0 8.17122 0.0258247 8.23503 0.077474C8.29883 0.129123 8.33377 0.194444 8.33984 0.273438L8.59505 1.95052C8.89279 2.04774 9.16623 2.16016 9.41536 2.28776L10.7096 1.3125C10.7643 1.25781 10.8372 1.23047 10.9284 1.23047C11.0074 1.23047 11.0833 1.26085 11.1562 1.32161C11.9401 2.0447 12.4414 2.5612 12.6602 2.87109C12.7027 2.9197 12.724 2.98655 12.724 3.07161C12.724 3.14453 12.6997 3.21441 12.651 3.28125C12.5599 3.40885 12.4049 3.61089 12.1862 3.88737C11.9674 4.16385 11.8034 4.37804 11.694 4.52995C11.852 4.83377 11.9766 5.13151 12.0677 5.42318L13.7357 5.67839C13.8147 5.69054 13.8785 5.72852 13.9271 5.79232C13.9757 5.85612 14 5.92752 14 6.00651Z" fill="#219FCE"/>
</svg>
