<svg width="30" height="26" viewBox="0 0 30 26" fill="none" xmlns="http://www.w3.org/2000/svg">
<path d="M25.8398 13.7938L15.012 24L4.18431 13.7938C3.47012 13.1323 2.90756 12.3373 2.53207 11.4588C2.15657 10.5803 1.97626 9.6373 2.0025 8.6892C2.02874 7.7411 2.26096 6.80844 2.68453 5.94996C3.10811 5.09147 3.71386 4.32575 4.46364 3.70102C5.21343 3.07629 6.091 2.60608 7.04111 2.31999C7.99122 2.03391 8.99327 1.93816 9.98417 2.03876C10.9751 2.13936 11.9333 2.43414 12.7987 2.90454C13.664 3.37493 14.4176 4.01075 15.012 4.77196C15.609 4.01628 16.3635 3.38601 17.2282 2.92061C18.093 2.45521 19.0493 2.16469 20.0374 2.06723C21.0256 1.96977 22.0242 2.06747 22.9708 2.35422C23.9174 2.64097 24.7917 3.11059 25.5388 3.7337C26.286 4.3568 26.8899 5.11998 27.3129 5.97545C27.7359 6.83093 27.9688 7.76029 27.9971 8.70538C28.0253 9.65046 27.8483 10.5909 27.4771 11.4679C27.1059 12.3449 26.5485 13.1395 25.8398 13.802" stroke="#219FCE" stroke-width="3" stroke-linecap="round" stroke-linejoin="round"/>
</svg>
