<svg width="20" height="20" viewBox="0 0 20 20" fill="none" xmlns="http://www.w3.org/2000/svg">
<path d="M9.55861 3.20084C9.6758 3.08379 9.83465 3.01805 10.0003 3.01805C10.1659 3.01805 10.3248 3.08379 10.4419 3.20084L17.6836 10.4425C17.7413 10.5022 17.8103 10.5498 17.8865 10.5825C17.9628 10.6152 18.0448 10.6324 18.1278 10.6331C18.2108 10.6338 18.2931 10.6179 18.3699 10.5864C18.4467 10.555 18.5165 10.5085 18.5751 10.4498C18.6338 10.3911 18.6801 10.3213 18.7115 10.2445C18.7429 10.1677 18.7587 10.0854 18.7579 10.0024C18.7572 9.91938 18.7399 9.83738 18.7071 9.76114C18.6743 9.68491 18.6267 9.61596 18.5669 9.55834L11.3261 2.31667C11.152 2.14256 10.9453 2.00444 10.7178 1.91021C10.4903 1.81599 10.2465 1.76749 10.0003 1.76749C9.75405 1.76749 9.51023 1.81599 9.28274 1.91021C9.05525 2.00444 8.84855 2.14256 8.67444 2.31667L1.43278 9.55834C1.37311 9.61602 1.32553 9.68501 1.29281 9.76127C1.26009 9.83754 1.24289 9.91956 1.24221 10.0026C1.24153 10.0855 1.25738 10.1678 1.28884 10.2446C1.3203 10.3214 1.36674 10.3912 1.42545 10.4498C1.48416 10.5085 1.55397 10.5549 1.63079 10.5863C1.70762 10.6176 1.78992 10.6334 1.87291 10.6327C1.9559 10.6319 2.0379 10.6146 2.11414 10.5818C2.19038 10.549 2.25932 10.5014 2.31694 10.4417L9.55861 3.20084Z" fill="#219FCE"/>
<path d="M10 3.63309L16.7992 10.4323C16.8242 10.4567 16.8494 10.4806 16.875 10.5039V15.6689C16.875 16.5314 16.175 17.2314 15.3125 17.2314H12.5C12.3342 17.2314 12.1753 17.1656 12.0581 17.0484C11.9408 16.9312 11.875 16.7722 11.875 16.6064V12.8564C11.875 12.6907 11.8092 12.5317 11.6919 12.4145C11.5747 12.2973 11.4158 12.2314 11.25 12.2314H8.75C8.58424 12.2314 8.42527 12.2973 8.30806 12.4145C8.19085 12.5317 8.125 12.6907 8.125 12.8564V16.6064C8.125 16.7722 8.05915 16.9312 7.94194 17.0484C7.82473 17.1656 7.66576 17.2314 7.5 17.2314H4.6875C4.2731 17.2314 3.87567 17.0668 3.58265 16.7738C3.28962 16.4807 3.125 16.0833 3.125 15.6689V10.5039L3.20083 10.4323L10 3.63309Z" fill="#219FCE"/>
</svg>
