<svg width="30" height="30" viewBox="0 0 30 30" fill="none" xmlns="http://www.w3.org/2000/svg">
<g clip-path="url(#clip0_0_5202)">
<path d="M20 24.375V21.25C20 21.0677 19.9414 20.918 19.8242 20.8008C19.707 20.6836 19.5573 20.625 19.375 20.625H17.5V10.625C17.5 10.4427 17.4414 10.293 17.3242 10.1758C17.207 10.0586 17.0573 10 16.875 10H10.625C10.4427 10 10.293 10.0586 10.1758 10.1758C10.0586 10.293 10 10.4427 10 10.625V13.75C10 13.9323 10.0586 14.082 10.1758 14.1992C10.293 14.3164 10.4427 14.375 10.625 14.375H12.5V20.625H10.625C10.4427 20.625 10.293 20.6836 10.1758 20.8008C10.0586 20.918 10 21.0677 10 21.25V24.375C10 24.5573 10.0586 24.707 10.1758 24.8242C10.293 24.9414 10.4427 25 10.625 25H19.375C19.5573 25 19.707 24.9414 19.8242 24.8242C19.9414 24.707 20 24.5573 20 24.375ZM17.5 6.875V3.75C17.5 3.56771 17.4414 3.41797 17.3242 3.30078C17.207 3.18359 17.0573 3.125 16.875 3.125H13.125C12.9427 3.125 12.793 3.18359 12.6758 3.30078C12.5586 3.41797 12.5 3.56771 12.5 3.75V6.875C12.5 7.05729 12.5586 7.20703 12.6758 7.32422C12.793 7.44141 12.9427 7.5 13.125 7.5H16.875C17.0573 7.5 17.207 7.44141 17.3242 7.32422C17.4414 7.20703 17.5 7.05729 17.5 6.875ZM30 15C30 17.7214 29.3294 20.2311 27.9883 22.5293C26.6471 24.8275 24.8275 26.6471 22.5293 27.9883C20.2311 29.3294 17.7214 30 15 30C12.2786 30 9.76888 29.3294 7.4707 27.9883C5.17253 26.6471 3.35286 24.8275 2.01172 22.5293C0.670573 20.2311 0 17.7214 0 15C0 12.2786 0.670573 9.76888 2.01172 7.4707C3.35286 5.17253 5.17253 3.35286 7.4707 2.01172C9.76888 0.670573 12.2786 0 15 0C17.7214 0 20.2311 0.670573 22.5293 2.01172C24.8275 3.35286 26.6471 5.17253 27.9883 7.4707C29.3294 9.76888 30 12.2786 30 15Z" fill="#00DA95"/>
</g>
<defs>
<clipPath id="clip0_0_5202">
<rect width="30" height="30" fill="white"/>
</clipPath>
</defs>
</svg>
