<svg width="12" height="14" viewBox="0 0 12 14" fill="none" xmlns="http://www.w3.org/2000/svg">
<path d="M10.2426 2.09067C11.3442 3.19209 11.9742 4.67875 11.9995 6.23628C12.0247 7.79381 11.4432 9.30011 10.378 10.4367L10.2426 10.5767L7.41398 13.4047C7.05506 13.7634 6.57323 13.9722 6.06608 13.9889C5.55893 14.0056 5.06439 13.829 4.68264 13.4947L4.58664 13.4047L1.75731 10.576C0.632084 9.45078 -6.10352e-05 7.92464 -6.10352e-05 6.33333C-6.10352e-05 4.74203 0.632084 3.21589 1.75731 2.09067C2.88253 0.965443 4.40867 0.333298 5.99998 0.333298C7.59128 0.333298 9.11742 0.965443 10.2426 2.09067ZM5.99998 4.33333C5.73733 4.33333 5.47726 4.38507 5.23461 4.48558C4.99196 4.58608 4.77148 4.7334 4.58576 4.91912C4.40004 5.10484 4.25273 5.32532 4.15222 5.56797C4.05171 5.81062 3.99998 6.07069 3.99998 6.33333C3.99998 6.59598 4.05171 6.85605 4.15222 7.0987C4.25273 7.34135 4.40004 7.56183 4.58576 7.74755C4.77148 7.93327 4.99196 8.08058 5.23461 8.18109C5.47726 8.2816 5.73733 8.33333 5.99998 8.33333C6.53041 8.33333 7.03912 8.12262 7.41419 7.74755C7.78926 7.37248 7.99998 6.86377 7.99998 6.33333C7.99998 5.8029 7.78926 5.29419 7.41419 4.91912C7.03912 4.54405 6.53041 4.33333 5.99998 4.33333Z" fill="#219FCE"/>
</svg>
