<svg width="16" height="16" viewBox="0 0 16 16" fill="none" xmlns="http://www.w3.org/2000/svg">
<path d="M12.9384 2.40002L13.0059 2.40374C13.3393 2.4387 13.5998 2.73031 13.5998 3.08474V12.1153C13.5998 12.4933 13.3035 12.8 12.9384 12.8H1.46118C1.09607 12.8 0.799805 12.4933 0.799805 12.1153V3.08474L0.803391 3.01493C0.837166 2.66972 1.11883 2.40002 1.46118 2.40002H12.9384ZM2.12256 11.4306H12.2771V3.76946H2.12256V11.4306Z" fill="#219FCE"/>
<path d="M12.0454 3.0439C12.3208 2.79594 12.7383 2.82575 12.9779 3.11074C13.2174 3.39588 13.1886 3.8281 12.9133 4.07617L7.63379 8.8291C7.38504 9.05304 7.01457 9.05304 6.76582 8.8291L1.48629 4.07617L1.43751 4.0279C1.20827 3.77499 1.19716 3.37811 1.42173 3.11074C1.6464 2.84353 2.02749 2.80003 2.30117 3.00008L2.35425 3.0439L7.1998 7.40545L12.0454 3.0439Z" fill="#219FCE"/>
</svg>
