<svg width="16" height="14" viewBox="0 0 16 14" fill="none" xmlns="http://www.w3.org/2000/svg">
<path d="M15.5038 3.875L15.5001 10.8434C15.5001 11.4573 15.2808 12.0479 14.8871 12.4946C14.4934 12.9412 13.955 13.2101 13.3821 13.2461L13.2501 13.2501H2.75006C2.17615 13.2501 1.62392 13.0156 1.20637 12.5944C0.788806 12.1733 0.53748 11.5974 0.503811 10.9846L0.500061 10.8434L0.503811 3.875L7.58756 8.92674L7.67456 8.97969C7.77709 9.03328 7.8897 9.06113 8.00381 9.06113C8.11792 9.06113 8.23053 9.03328 8.33306 8.97969L8.42006 8.92674L15.5038 3.875Z" fill="#219FCE"/>
<path d="M13.4946 0.75C14.3423 0.75 15.0856 1.20691 15.5001 1.89387L8.00006 7L0.500061 1.89387C0.696915 1.56748 0.967322 1.29388 1.28874 1.09588C1.61015 0.897876 1.97326 0.781212 2.34778 0.755611L2.50556 0.75H13.4946Z" fill="#219FCE"/>
</svg>
