<svg width="16" height="14" viewBox="0 0 16 14" fill="none" xmlns="http://www.w3.org/2000/svg">
<path fill-rule="evenodd" clip-rule="evenodd" d="M0.25 2C0.25 1.30964 0.809644 0.75 1.5 0.75H14.5C15.1904 0.75 15.75 1.30964 15.75 2C15.75 2.69036 15.1904 3.25 14.5 3.25H1.5C0.809644 3.25 0.25 2.69036 0.25 2ZM0.25 7C0.25 6.30964 0.809644 5.75 1.5 5.75H14.5C15.1904 5.75 15.75 6.30964 15.75 7C15.75 7.69036 15.1904 8.25 14.5 8.25H1.5C0.809644 8.25 0.25 7.69036 0.25 7ZM0.25 12C0.25 11.3096 0.809644 10.75 1.5 10.75H14.5C15.1904 10.75 15.75 11.3096 15.75 12C15.75 12.6904 15.1904 13.25 14.5 13.25H1.5C0.809644 13.25 0.25 12.6904 0.25 12Z" fill="#219FCE"/>
</svg>
