<svg width="20" height="20" viewBox="0 0 20 20" fill="none" xmlns="http://www.w3.org/2000/svg">
<path d="M10 1C14.9706 1 19 5.02944 19 10C19 14.9706 14.9706 19 10 19C5.02944 19 1 14.9706 1 10C1 5.02944 5.02944 1 10 1Z" fill="white" stroke="url(#paint0_linear_0_6249)" stroke-width="2"/>
<path d="M6 10C6 9.17157 6.67157 8.5 7.5 8.5H12.5C13.3284 8.5 14 9.17157 14 10C14 10.8284 13.3284 11.5 12.5 11.5H7.5C6.67157 11.5 6 10.8284 6 10Z" fill="url(#paint1_linear_0_6249)"/>
<path d="M10 14C9.17157 14 8.5 13.3284 8.5 12.5L8.5 7.5C8.5 6.67157 9.17157 6 10 6C10.8284 6 11.5 6.67157 11.5 7.5L11.5 12.5C11.5 13.3284 10.8284 14 10 14Z" fill="url(#paint2_linear_0_6249)"/>
<defs>
<linearGradient id="paint0_linear_0_6249" x1="20" y1="10" x2="0" y2="10" gradientUnits="userSpaceOnUse">
<stop stop-color="#3D5AEE"/>
<stop offset="1" stop-color="#01EBAB"/>
</linearGradient>
<linearGradient id="paint1_linear_0_6249" x1="14" y1="10" x2="6" y2="10" gradientUnits="userSpaceOnUse">
<stop stop-color="#3D5AEE"/>
<stop offset="1" stop-color="#01EBAB"/>
</linearGradient>
<linearGradient id="paint2_linear_0_6249" x1="10" y1="6" x2="10" y2="14" gradientUnits="userSpaceOnUse">
<stop stop-color="#3D5AEE"/>
<stop offset="1" stop-color="#01EBAB"/>
</linearGradient>
</defs>
</svg>
