<svg width="16" height="16" viewBox="0 0 16 16" fill="none" xmlns="http://www.w3.org/2000/svg">
<path d="M9.86605 5.33333V3.33333H4.53271V5.33333H3.19938V2H11.1994V5.33333H9.86605ZM11.1994 8.33333C11.3883 8.33333 11.5467 8.26933 11.6747 8.14133C11.8027 8.01333 11.8665 7.85511 11.866 7.66667C11.8656 7.47822 11.8016 7.32 11.674 7.192C11.5465 7.064 11.3883 7 11.1994 7C11.0105 7 10.8523 7.064 10.7247 7.192C10.5972 7.32 10.5332 7.47822 10.5327 7.66667C10.5323 7.85511 10.5963 8.01356 10.7247 8.142C10.8532 8.27044 11.0114 8.33422 11.1994 8.33333ZM9.86605 12.6667V10H4.53271V12.6667H9.86605ZM11.1994 14H3.19938V11.3333H0.532715V7.33333C0.532715 6.76667 0.727159 6.29178 1.11605 5.90867C1.50494 5.52556 1.97716 5.33378 2.53271 5.33333H11.866C12.4327 5.33333 12.9078 5.52511 13.2914 5.90867C13.6749 6.29222 13.8665 6.76711 13.866 7.33333V11.3333H11.1994V14ZM12.5327 10V7.33333C12.5327 7.14444 12.4687 6.98622 12.3407 6.85867C12.2127 6.73111 12.0545 6.66711 11.866 6.66667H2.53271C2.34383 6.66667 2.1856 6.73067 2.05805 6.85867C1.93049 6.98667 1.86649 7.14489 1.86605 7.33333V10H3.19938V8.66667H11.1994V10H12.5327Z" fill="#219FCE"/>
</svg>
