<svg width="15" height="20" viewBox="0 0 15 20" fill="none" xmlns="http://www.w3.org/2000/svg">
<path d="M9.35 11.25C12.675 11.25 15 8.92742 15 5.58871C15 2.25 12.675 0 9.35 0H2.96875C2.70988 0 2.5 0.209883 2.5 0.46875V8.54031H0.46875C0.209883 8.54031 0 8.75019 0 9.00906V10.7812C0 11.0401 0.209883 11.25 0.46875 11.25H2.5V12.5H0.46875C0.209883 12.5 0 12.7099 0 12.9688V14.5312C0 14.7901 0.209883 15 0.46875 15H2.5V17.0312C2.5 17.2901 2.70988 17.5 2.96875 17.5H5.25625C5.51512 17.5 5.725 17.2901 5.725 17.0312V15H12.0312C12.2901 15 12.5 14.7901 12.5 14.5312V12.9688C12.5 12.7099 12.2901 12.5 12.0312 12.5H5.725V11.25H9.35ZM5.725 2.68547H8.8C10.625 2.68547 11.725 3.82258 11.725 5.58871C11.725 7.37902 10.625 8.54031 8.75 8.54031H5.725V2.68547Z" fill="black"/>
</svg>
