<svg width="24" height="24" viewBox="0 0 24 24" fill="none" xmlns="http://www.w3.org/2000/svg">
<path d="M13.4615 18.0262L8.37841 15.2784C7.71478 15.9816 6.85311 16.4707 5.90536 16.6821C4.95761 16.8936 3.96762 16.8175 3.06403 16.464C2.16045 16.1104 1.38506 15.4955 0.838631 14.6994C0.292202 13.9033 0 12.9626 0 11.9997C0 11.0368 0.292202 10.0962 0.838631 9.30004C1.38506 8.50391 2.16045 7.88909 3.06403 7.53549C3.96762 7.1819 4.95761 7.10587 5.90536 7.3173C6.85311 7.52872 7.71478 8.01782 8.37841 8.72103L13.4627 5.97329C13.1745 4.84055 13.3129 3.6425 13.8521 2.60373C14.3913 1.56495 15.2943 0.756759 16.3917 0.330658C17.489 -0.095443 18.7055 -0.110201 19.8131 0.289151C20.9207 0.688502 21.8433 1.47454 22.408 2.49993C22.9727 3.52532 23.1407 4.71964 22.8805 5.85903C22.6204 6.99843 21.9499 8.00465 20.9948 8.68908C20.0397 9.37352 18.8655 9.68917 17.6924 9.57687C16.5192 9.46458 15.4277 8.93204 14.6224 8.07909L9.53811 10.8268C9.73365 11.5963 9.73365 12.4019 9.53811 13.1714L14.6224 15.9192C15.4281 15.0666 16.5199 14.5346 17.693 14.4229C18.8662 14.3112 20.0402 14.6274 20.995 15.3122C21.9497 15.9971 22.6197 17.0036 22.8794 18.1431C23.139 19.2826 22.9705 20.4768 22.4053 21.5019C21.8402 22.527 20.9173 23.3127 19.8095 23.7115C18.7018 24.1104 17.4853 24.0952 16.3882 23.6686C15.291 23.2421 14.3884 22.4336 13.8496 21.3946C13.3108 20.3556 13.1728 19.1576 13.4615 18.025M4.84242 14.3989C5.48453 14.3989 6.10034 14.1461 6.55438 13.696C7.00842 13.246 7.2635 12.6356 7.2635 11.9991C7.2635 11.3627 7.00842 10.7523 6.55438 10.3022C6.10034 9.85218 5.48453 9.59935 4.84242 9.59935C4.2003 9.59935 3.58449 9.85218 3.13045 10.3022C2.67641 10.7523 2.42133 11.3627 2.42133 11.9991C2.42133 12.6356 2.67641 13.246 3.13045 13.696C3.58449 14.1461 4.2003 14.3989 4.84242 14.3989ZM18.1584 7.19957C18.8005 7.19957 19.4163 6.94674 19.8703 6.4967C20.3244 6.04665 20.5795 5.43626 20.5795 4.7998C20.5795 4.16334 20.3244 3.55295 19.8703 3.1029C19.4163 2.65286 18.8005 2.40002 18.1584 2.40002C17.5163 2.40002 16.9005 2.65286 16.4464 3.1029C15.9924 3.55295 15.7373 4.16334 15.7373 4.7998C15.7373 5.43626 15.9924 6.04665 16.4464 6.4967C16.9005 6.94674 17.5163 7.19957 18.1584 7.19957ZM18.1584 21.5982C18.8005 21.5982 19.4163 21.3454 19.8703 20.8953C20.3244 20.4453 20.5795 19.8349 20.5795 19.1985C20.5795 18.562 20.3244 17.9516 19.8703 17.5016C19.4163 17.0515 18.8005 16.7987 18.1584 16.7987C17.5163 16.7987 16.9005 17.0515 16.4464 17.5016C15.9924 17.9516 15.7373 18.562 15.7373 19.1985C15.7373 19.8349 15.9924 20.4453 16.4464 20.8953C16.9005 21.3454 17.5163 21.5982 18.1584 21.5982Z" fill="#219FCE"/>
</svg>
