<svg width="19" height="18" viewBox="0 0 19 18" fill="none" xmlns="http://www.w3.org/2000/svg">
<path d="M0.321476 8.66653L4.5364 10.3045L6.17949 15.8138C6.25093 16.1861 6.67957 16.2605 6.96533 16.0372L9.32281 14.027C9.53712 13.8036 9.89433 13.8036 10.1801 14.027L14.395 17.2284C14.6807 17.4517 15.1094 17.3028 15.1808 16.9306L18.3241 1.29589C18.3956 0.923632 18.0384 0.55138 17.6812 0.700282L0.321476 7.69867C-0.107159 7.84757 -0.107159 8.51763 0.321476 8.66653ZM5.96518 9.48549L14.2521 4.19947C14.395 4.12502 14.5379 4.34838 14.395 4.42283L7.60827 11.049C7.39396 11.2723 7.17963 11.5701 7.17963 11.9424L6.96533 13.7292C6.96533 13.9526 6.60813 14.027 6.53669 13.7292L5.67941 10.4534C5.46509 10.0811 5.60799 9.63439 5.96518 9.48549Z" fill="#219FCE"/>
</svg>
