<svg width="18" height="19" viewBox="0 0 18 19" fill="none" xmlns="http://www.w3.org/2000/svg">
<path d="M6.98829 11.5C7.37959 11.5001 7.75837 11.6379 8.05829 11.8892L8.16663 11.9883L8.99996 12.8217L9.83329 11.9883C10.11 11.7117 10.4752 11.5411 10.865 11.5067L11.0116 11.5H14.365C14.897 11.5 15.4151 11.6697 15.8441 11.9844C16.273 12.2991 16.5904 12.7425 16.75 13.25L16.7908 13.3933L17.1791 14.9467C17.223 15.122 17.2282 15.3047 17.1946 15.4823C17.161 15.6599 17.0893 15.828 16.9844 15.9752C16.8795 16.1224 16.744 16.2451 16.5871 16.3348C16.4303 16.4245 16.2558 16.4792 16.0758 16.495L15.9666 16.5H2.03329C1.85261 16.4999 1.67409 16.4607 1.51003 16.385C1.34597 16.3093 1.20026 16.199 1.08296 16.0615C0.965654 15.9241 0.879535 15.7629 0.830536 15.589C0.781536 15.4151 0.77082 15.2326 0.799127 15.0542L0.820794 14.9467L1.20913 13.3933C1.33819 12.8772 1.62857 12.4156 2.03803 12.0758C2.44748 11.7361 2.95467 11.5358 3.48579 11.5042L3.63496 11.5H6.98829ZM8.99996 0.666668C9.65329 0.666668 10.3841 0.825001 10.9833 0.992501C12.3133 1.36333 13.1016 2.5725 13.1625 3.83833L13.1666 3.99667V7.33583C13.1666 8.65917 12.3691 9.955 10.9833 10.3408C10.3841 10.5075 9.65329 10.6667 8.99996 10.6667C8.34663 10.6667 7.61579 10.5083 7.01663 10.3408C5.68663 9.97 4.89829 8.76083 4.83746 7.495L4.83329 7.33667V3.99667C4.83329 2.67417 5.63079 1.3775 7.01663 0.991668C7.61579 0.825835 8.34663 0.666668 8.99996 0.666668Z" fill="#219FCE"/>
</svg>
