<svg width="22" height="13" viewBox="0 0 22 13" fill="none" xmlns="http://www.w3.org/2000/svg">
<path d="M21.7957 11.6644C21.7957 11.5753 21.7081 11.5753 21.7081 11.4863C21.358 10.774 20.5702 9.88357 19.5198 8.90411C18.9946 8.45891 18.732 8.10274 18.5569 7.92466C18.2943 7.56849 18.2943 7.30138 18.3819 6.94521C18.4694 6.67809 18.8195 6.23287 19.4323 5.4315C19.7824 4.9863 19.9574 4.71918 20.22 4.45206C21.533 2.67123 22.1458 1.51369 21.9707 0.979445L21.8832 0.890411C21.7957 0.80137 21.7081 0.712332 21.533 0.712332C21.358 0.623291 21.0954 0.623291 20.8328 0.712332H17.5066C17.419 0.712332 17.419 0.712332 17.2439 0.712332C17.1564 0.712332 17.0689 0.712332 17.0689 0.712332H16.9814H16.8938L16.8063 0.801365C16.7187 0.890406 16.7187 0.890403 16.7187 0.979445C16.3686 1.9589 15.9309 2.76027 15.4933 3.65068C15.2307 4.09588 14.9681 4.5411 14.7055 4.89726C14.4429 5.25343 14.2678 5.52055 14.0928 5.69863C13.9177 5.87671 13.7426 5.96575 13.6551 6.14383C13.5676 6.23288 13.3925 6.32192 13.3925 6.23288C13.305 6.23288 13.2174 6.23288 13.2174 6.14383C13.1299 6.05479 13.0424 5.96575 12.9548 5.87671C12.8673 5.78767 12.8673 5.60958 12.7798 5.4315C12.7798 5.25342 12.7798 5.07534 12.7798 4.9863C12.7798 4.89726 12.7798 4.63014 12.7798 4.45206C12.7798 4.18493 12.7798 4.00685 12.7798 3.91781C12.7798 3.65068 12.7798 3.29453 12.7798 2.93836C12.7798 2.5822 12.7798 2.31506 12.7798 2.13698C12.7798 1.9589 12.7798 1.69178 12.7798 1.5137C12.7798 1.24657 12.7798 1.06849 12.7798 0.979445C12.7798 0.890403 12.6923 0.712327 12.6923 0.623285C12.6047 0.534244 12.5172 0.4452 12.4296 0.356159C12.3421 0.267118 12.167 0.267121 12.0795 0.17808C11.6419 0.0890384 11.1167 0 10.5039 0C9.10341 0 8.14055 0.0890439 7.79042 0.267126C7.61535 0.356167 7.44029 0.445203 7.35276 0.623285C7.17769 0.801368 7.17768 0.890411 7.26522 0.890411C7.70288 0.979453 8.05302 1.15753 8.22808 1.42465L8.31562 1.60274C8.40315 1.69178 8.40314 1.86986 8.49067 2.13698C8.5782 2.40411 8.57821 2.67123 8.57821 3.02739C8.57821 3.56164 8.57821 4.09589 8.57821 4.45206C8.57821 4.89726 8.49067 5.16438 8.49067 5.4315C8.49067 5.69863 8.40315 5.87671 8.31562 5.96575C8.22809 6.14384 8.22808 6.23288 8.14054 6.23288C8.14054 6.23288 8.14054 6.32191 8.05301 6.32191C7.96547 6.32191 7.87795 6.41096 7.70288 6.41096C7.61535 6.41096 7.44029 6.32192 7.35276 6.23288C7.17769 6.14384 7.00262 5.96576 6.91509 5.78767C6.74003 5.60959 6.56496 5.34246 6.38989 4.9863C6.21482 4.63013 5.95222 4.27397 5.77715 3.73973L5.6021 3.38357C5.51457 3.20548 5.3395 2.84931 5.16444 2.40411C4.98937 1.9589 4.8143 1.60274 4.63924 1.15754C4.5517 0.979455 4.46418 0.890406 4.37665 0.801365H4.28911C4.28911 0.801365 4.20157 0.712332 4.11403 0.712332C4.0265 0.712332 3.93898 0.623285 3.85145 0.623285H0.700264C0.350134 0.623285 0.175071 0.712324 0.087538 0.801365L0 0.890411C0 0.890411 0 0.97945 0 1.06849C0 1.15753 5.34207e-06 1.24657 0.087538 1.42465C0.525202 2.49314 1.0504 3.56164 1.57559 4.63014C2.10079 5.60959 2.62599 6.5 2.97612 7.12329C3.41378 7.74658 3.76391 8.36987 4.20157 8.90411C4.63924 9.43836 4.90183 9.79452 4.98936 9.97261C5.16443 10.1507 5.25195 10.2397 5.33949 10.3288L5.6021 10.5959C5.77717 10.774 6.03976 11.0411 6.38989 11.3082C6.74002 11.5753 7.17768 11.8425 7.61534 12.1096C8.05301 12.3767 8.57821 12.5548 9.10341 12.7329C9.71614 12.911 10.2413 13 10.7665 12.911H12.0795C12.3421 12.911 12.5172 12.8219 12.6923 12.6438L12.7798 12.5548C12.7798 12.4658 12.8673 12.4658 12.8673 12.3767C12.8673 12.2877 12.8673 12.1986 12.8673 12.0206C12.8673 11.6644 12.8673 11.3973 12.9548 11.1301C13.0424 10.863 13.0424 10.6849 13.1299 10.5069C13.2175 10.3288 13.305 10.2397 13.3925 10.1507C13.48 10.0616 13.5676 9.97261 13.5676 9.97261H13.6551C13.8302 9.88356 14.0928 9.9726 14.2678 10.1507C14.5304 10.3288 14.793 10.5959 14.9681 10.863C15.1431 11.1301 15.4058 11.3973 15.7559 11.7534C16.106 12.1096 16.3686 12.3767 16.5437 12.4658L16.8063 12.6438C16.9813 12.7329 17.1564 12.8219 17.419 12.911C17.6816 13 17.8567 13 18.0317 13L21.0079 12.911C21.2705 12.911 21.533 12.8219 21.7081 12.7329C21.8832 12.6438 21.9707 12.5548 21.9707 12.3767C21.9707 12.2877 21.9707 12.1096 21.9707 12.0206C21.7956 11.8425 21.7957 11.7534 21.7957 11.6644Z" fill="#219FCE"/>
</svg>
