<svg width="19" height="19" viewBox="0 0 19 19" fill="none" xmlns="http://www.w3.org/2000/svg">
<path d="M16.317 2.67361C14.5923 0.95486 12.2926 0 9.86523 0C4.81877 0 0.730504 4.07407 0.730504 9.10301C0.730504 10.6944 1.17766 12.2859 1.94421 13.6227L0.666626 18.3333L5.52145 17.0602C6.86291 17.7604 8.33213 18.1424 9.86523 18.1424C14.9117 18.1424 19 14.0683 19 9.03935C18.9361 6.68403 18.0418 4.39236 16.317 2.67361ZM14.2729 12.3495C14.0813 12.8588 13.1869 13.3681 12.7398 13.4317C12.3565 13.4954 11.8455 13.4954 11.3345 13.3681C11.0151 13.2407 10.5679 13.1134 10.0569 12.8588C7.75722 11.9039 6.288 9.61227 6.16024 9.4213C6.03248 9.29398 5.20205 8.2118 5.20205 7.06597C5.20205 5.92014 5.77696 5.41088 5.9686 5.15625C6.16024 4.90162 6.41575 4.90162 6.60739 4.90162C6.73515 4.90162 6.92679 4.90162 7.05454 4.90162C7.1823 4.90162 7.37394 4.83796 7.56558 5.28356C7.75722 5.72917 8.20437 6.875 8.26825 6.93866C8.33213 7.06597 8.33213 7.19329 8.26825 7.3206C8.20437 7.44792 8.14049 7.57523 8.01273 7.70255C7.88497 7.82986 7.75722 8.02083 7.69334 8.08449C7.56558 8.21181 7.43782 8.33912 7.56558 8.53009C7.69334 8.78472 8.14049 9.48495 8.84316 10.1215C9.73747 10.8854 10.4401 11.14 10.6957 11.2674C10.9512 11.3947 11.0789 11.331 11.2067 11.2037C11.3345 11.0764 11.7816 10.5671 11.9094 10.3125C12.0371 10.0579 12.2288 10.1215 12.4204 10.1852C12.612 10.2488 13.7619 10.8218 13.9535 10.9491C14.209 11.0764 14.3368 11.14 14.4007 11.2037C14.4645 11.3947 14.4645 11.8403 14.2729 12.3495Z" fill="#219FCE"/>
</svg>
